<?xml version="1.0" encoding="utf-8"?>
<!-- Generator: Adobe Illustrator 27.0.0, SVG Export Plug-In . SVG Version: 6.00 Build 0)  -->
<svg version="1.1" id="Layer_1" xmlns="http://www.w3.org/2000/svg" xmlns:xlink="http://www.w3.org/1999/xlink" x="0px" y="0px"
	 viewBox="0 0 24 26" style="enable-background:new 0 0 24 26;" xml:space="preserve">
<style type="text/css">
	.st0{fill:#231D43;}
</style>
<g>
	<path class="st0" d="M11.7,13.1c-3.1,0-5.6-2.7-5.6-6s2.5-6,5.6-6s5.6,2.7,5.6,6S14.8,13.1,11.7,13.1z M11.7,3.3
		C9.8,3.3,8.3,5,8.3,7.1s1.5,3.8,3.4,3.8s3.4-1.7,3.4-3.8S13.6,3.3,11.7,3.3z"/>
	<path class="st0" d="M22.5,25.9c-0.6,0-1.1-0.5-1.1-1.1c0-6.1-4.7-8.9-9.4-8.9s-9.4,2.8-9.4,8.9c0,0.6-0.5,1.1-1.1,1.1
		s-1.1-0.5-1.1-1.1c0-6.5,4.8-11.1,11.6-11.1s11.6,4.6,11.6,11.1C23.6,25.4,23.1,25.9,22.5,25.9z"/>
</g>
</svg>
