<?xml version="1.0" encoding="utf-8"?>
<!-- Generator: Adobe Illustrator 27.0.0, SVG Export Plug-In . SVG Version: 6.00 Build 0)  -->
<svg version="1.1" id="Layer_1" xmlns="http://www.w3.org/2000/svg" xmlns:xlink="http://www.w3.org/1999/xlink" x="0px" y="0px"
	 viewBox="0 0 24 26" style="enable-background:new 0 0 24 26;" xml:space="preserve">
<style type="text/css">
	.st0{fill-rule:evenodd;clip-rule:evenodd;fill:#F7C532;}
</style>
<g id="Artboard">
	<g id="Group-8">
		<g id="Group-3">
			<g id="Oval">
				<g>
					<g id="Combined-Shape">
						<path id="path-1_00000137121732846096882950000007559479413821764789_" class="st0" d="M19.9,1.8c0.3,0.4,0.5,0.9,0.6,1.4
							l3.4,18.8c0.3,1.6-0.8,3.1-2.4,3.4c-0.5,0.1-1,0-1.5-0.1L2,18.6c-1.5-0.6-2.3-2.2-1.8-3.8c0.2-0.5,0.5-0.9,0.9-1.3L15.8,1.4
							C17,0.3,18.9,0.5,19.9,1.8z M16.5,18.5c-1,0-1.8,0.8-1.8,1.8s0.8,1.8,1.8,1.8c1,0,1.8-0.8,1.8-1.8S17.5,18.5,16.5,18.5z"/>
					</g>
				</g>
			</g>
		</g>
	</g>
</g>
</svg>
