<?xml version="1.0" encoding="utf-8"?>
<!-- Generator: Adobe Illustrator 27.0.0, SVG Export Plug-In . SVG Version: 6.00 Build 0)  -->
<svg version="1.1" id="Layer_1" xmlns="http://www.w3.org/2000/svg" xmlns:xlink="http://www.w3.org/1999/xlink" x="0px" y="0px"
	 viewBox="0 0 24 26" style="enable-background:new 0 0 24 26;" xml:space="preserve">
<style type="text/css">
	.st0{fill:#231D43;}
</style>
<g>
	<path class="st0" d="M9.2,12.1H1.9c-1,0-1.8-0.8-1.8-1.8V2.9C0,1.9,0.9,1,1.9,1h7.4c1,0,1.8,0.8,1.8,1.8v7.4
		C11.1,11.3,10.3,12.1,9.2,12.1z M1.9,2.9v7.4h7.4V2.9H1.9z"/>
	<path class="st0" d="M22.1,12.1h-7.4c-1,0-1.8-0.8-1.8-1.8V2.9c0-1,0.8-1.8,1.8-1.8h7.4c1,0,1.8,0.8,1.8,1.8v7.4
		C24,11.3,23.1,12.1,22.1,12.1z M14.8,2.9v7.4h7.4V2.9H14.8z"/>
	<path class="st0" d="M9.2,25H1.9c-1,0-1.8-0.8-1.8-1.8v-7.4c0-1,0.8-1.8,1.8-1.8h7.4c1,0,1.8,0.8,1.8,1.8v7.4
		C11.1,24.1,10.3,25,9.2,25z M1.9,15.8v7.4h7.4v-7.4H1.9z"/>
	<path class="st0" d="M22.1,25h-7.4c-1,0-1.8-0.8-1.8-1.8v-7.4c0-1,0.8-1.8,1.8-1.8h7.4c1,0,1.8,0.8,1.8,1.8v7.4
		C24,24.1,23.1,25,22.1,25z M14.8,15.8v7.4h7.4v-7.4H14.8z"/>
</g>
</svg>
